<mxfile host="app.diagrams.net" agent="Mozilla/5.0 (Windows NT 10.0; Win64; x64) AppleWebKit/537.36 (KHTML, like Gecko) Chrome/130.0.0.0 Safari/537.36 Edg/130.0.0.0" version="24.8.4">
  <diagram name="第 1 页" id="vakGan-ftT3iceLafQWI">
    <mxGraphModel dx="2382" dy="1207" grid="1" gridSize="10" guides="1" tooltips="1" connect="1" arrows="1" fold="1" page="1" pageScale="1" pageWidth="827" pageHeight="1169" math="0" shadow="0">
      <root>
        <mxCell id="0" />
        <mxCell id="1" parent="0" />
        <mxCell id="8JwG-Oh4VrNy21shM6Q0-7" value="" style="rounded=0;whiteSpace=wrap;html=1;fillColor=none;dashed=1;dashPattern=8 8;strokeColor=#000000;fontColor=#000000;" vertex="1" parent="1">
          <mxGeometry x="160" y="70" width="550" height="150" as="geometry" />
        </mxCell>
        <mxCell id="8JwG-Oh4VrNy21shM6Q0-1" value="&lt;p style=&quot;margin-top: 0pt; margin-bottom: 0pt; margin-left: 0in; direction: ltr; unicode-bidi: embed; word-break: normal;&quot;&gt;&lt;span style=&quot;font-size: 18pt; font-family: 宋体;&quot;&gt;卫星遥感&lt;/span&gt;&lt;/p&gt;&lt;p style=&quot;margin-top: 0pt; margin-bottom: 0pt; margin-left: 0in; direction: ltr; unicode-bidi: embed; word-break: normal;&quot;&gt;&lt;span style=&quot;font-size: 18pt; font-family: 宋体;&quot;&gt;数据模块&lt;/span&gt;&lt;/p&gt;" style="rounded=0;whiteSpace=wrap;html=1;" vertex="1" parent="1">
          <mxGeometry x="175" y="80" width="160" height="60" as="geometry" />
        </mxCell>
        <mxCell id="8JwG-Oh4VrNy21shM6Q0-2" value="&lt;p style=&quot;margin-top: 0pt; margin-bottom: 0pt; margin-left: 0in; direction: ltr; unicode-bidi: embed; word-break: normal;&quot;&gt;&lt;font face=&quot;宋体&quot;&gt;&lt;span style=&quot;font-size: 24px;&quot;&gt;海洋浮标&lt;/span&gt;&lt;/font&gt;&lt;/p&gt;&lt;p style=&quot;margin-top: 0pt; margin-bottom: 0pt; margin-left: 0in; direction: ltr; unicode-bidi: embed; word-break: normal;&quot;&gt;&lt;font face=&quot;宋体&quot;&gt;&lt;span style=&quot;font-size: 24px;&quot;&gt;数据模块&lt;/span&gt;&lt;/font&gt;&lt;/p&gt;" style="rounded=0;whiteSpace=wrap;html=1;" vertex="1" parent="1">
          <mxGeometry x="355" y="80" width="160" height="60" as="geometry" />
        </mxCell>
        <mxCell id="8JwG-Oh4VrNy21shM6Q0-3" value="&lt;p style=&quot;margin-top: 0pt; margin-bottom: 0pt; margin-left: 0in; direction: ltr; unicode-bidi: embed; word-break: normal;&quot;&gt;&lt;font face=&quot;宋体&quot;&gt;&lt;span style=&quot;font-size: 24px;&quot;&gt;船舶测&lt;/span&gt;&lt;/font&gt;&lt;/p&gt;&lt;p style=&quot;margin-top: 0pt; margin-bottom: 0pt; margin-left: 0in; direction: ltr; unicode-bidi: embed; word-break: normal;&quot;&gt;&lt;font face=&quot;宋体&quot;&gt;&lt;span style=&quot;font-size: 24px;&quot;&gt;数据模块&lt;/span&gt;&lt;/font&gt;&lt;/p&gt;" style="rounded=0;whiteSpace=wrap;html=1;" vertex="1" parent="1">
          <mxGeometry x="535" y="80" width="160" height="60" as="geometry" />
        </mxCell>
        <mxCell id="8JwG-Oh4VrNy21shM6Q0-4" value="&lt;p style=&quot;margin-top: 0pt; margin-bottom: 0pt; margin-left: 0in; direction: ltr; unicode-bidi: embed; word-break: normal;&quot;&gt;&lt;font face=&quot;宋体&quot;&gt;&lt;span style=&quot;font-size: 24px;&quot;&gt;海底观测网&lt;/span&gt;&lt;/font&gt;&lt;/p&gt;&lt;p style=&quot;margin-top: 0pt; margin-bottom: 0pt; margin-left: 0in; direction: ltr; unicode-bidi: embed; word-break: normal;&quot;&gt;&lt;font face=&quot;宋体&quot;&gt;&lt;span style=&quot;font-size: 24px;&quot;&gt;数据模块&lt;/span&gt;&lt;/font&gt;&lt;/p&gt;" style="rounded=0;whiteSpace=wrap;html=1;" vertex="1" parent="1">
          <mxGeometry x="175" y="150" width="160" height="60" as="geometry" />
        </mxCell>
        <mxCell id="8JwG-Oh4VrNy21shM6Q0-5" value="&lt;p style=&quot;margin-top: 0pt; margin-bottom: 0pt; margin-left: 0in; direction: ltr; unicode-bidi: embed; word-break: normal;&quot;&gt;&lt;font face=&quot;宋体&quot;&gt;&lt;span style=&quot;font-size: 24px;&quot;&gt;地波雷达&lt;/span&gt;&lt;/font&gt;&lt;/p&gt;&lt;p style=&quot;margin-top: 0pt; margin-bottom: 0pt; margin-left: 0in; direction: ltr; unicode-bidi: embed; word-break: normal;&quot;&gt;&lt;font face=&quot;宋体&quot;&gt;&lt;span style=&quot;font-size: 24px;&quot;&gt;数据模块&lt;/span&gt;&lt;/font&gt;&lt;/p&gt;" style="rounded=0;whiteSpace=wrap;html=1;" vertex="1" parent="1">
          <mxGeometry x="355" y="150" width="160" height="60" as="geometry" />
        </mxCell>
        <mxCell id="8JwG-Oh4VrNy21shM6Q0-6" value="&lt;p style=&quot;margin-top: 0pt; margin-bottom: 0pt; margin-left: 0in; direction: ltr; unicode-bidi: embed; word-break: normal;&quot;&gt;&lt;font face=&quot;宋体&quot;&gt;&lt;span style=&quot;font-size: 24px;&quot;&gt;再分析与数值模拟数据模块&lt;/span&gt;&lt;/font&gt;&lt;/p&gt;" style="rounded=0;whiteSpace=wrap;html=1;" vertex="1" parent="1">
          <mxGeometry x="535" y="150" width="160" height="60" as="geometry" />
        </mxCell>
        <mxCell id="8JwG-Oh4VrNy21shM6Q0-8" value="" style="endArrow=classic;html=1;rounded=0;exitX=0.5;exitY=1;exitDx=0;exitDy=0;edgeStyle=orthogonalEdgeStyle;entryX=0.5;entryY=0;entryDx=0;entryDy=0;" edge="1" parent="1" source="8JwG-Oh4VrNy21shM6Q0-7" target="8JwG-Oh4VrNy21shM6Q0-16">
          <mxGeometry relative="1" as="geometry">
            <mxPoint x="280" y="380" as="sourcePoint" />
            <mxPoint x="405" y="330" as="targetPoint" />
          </mxGeometry>
        </mxCell>
        <mxCell id="8JwG-Oh4VrNy21shM6Q0-9" value="Label" style="edgeLabel;resizable=0;html=1;;align=center;verticalAlign=middle;" connectable="0" vertex="1" parent="8JwG-Oh4VrNy21shM6Q0-8">
          <mxGeometry relative="1" as="geometry" />
        </mxCell>
        <mxCell id="8JwG-Oh4VrNy21shM6Q0-10" value="&lt;font style=&quot;font-size: 16px;&quot; face=&quot;宋体&quot;&gt;提供原始数据&lt;/font&gt;" style="edgeLabel;html=1;align=center;verticalAlign=middle;resizable=0;points=[];" vertex="1" connectable="0" parent="8JwG-Oh4VrNy21shM6Q0-8">
          <mxGeometry x="0.004" y="-1" relative="1" as="geometry">
            <mxPoint as="offset" />
          </mxGeometry>
        </mxCell>
        <mxCell id="8JwG-Oh4VrNy21shM6Q0-14" value="&lt;font face=&quot;宋体&quot; style=&quot;font-size: 24px;&quot;&gt;数据采集&lt;/font&gt;" style="rounded=0;whiteSpace=wrap;html=1;textDirection=vertical-lr;" vertex="1" parent="1">
          <mxGeometry x="80" y="70" width="60" height="150" as="geometry" />
        </mxCell>
        <mxCell id="8JwG-Oh4VrNy21shM6Q0-16" value="" style="rounded=0;whiteSpace=wrap;html=1;fillColor=none;dashed=1;dashPattern=8 8;strokeColor=#000000;" vertex="1" parent="1">
          <mxGeometry x="222.5" y="287.5" width="425" height="222.5" as="geometry" />
        </mxCell>
        <mxCell id="8JwG-Oh4VrNy21shM6Q0-17" value="&lt;span style=&quot;line-height: 18px; font-family: 宋体;&quot;&gt;&lt;font style=&quot;font-size: 24px;&quot;&gt;数据质控与预处理&lt;/font&gt;&lt;/span&gt;" style="rounded=0;whiteSpace=wrap;html=1;textDirection=vertical-lr;align=center;" vertex="1" parent="1">
          <mxGeometry x="80" y="285" width="60" height="225" as="geometry" />
        </mxCell>
        <mxCell id="8JwG-Oh4VrNy21shM6Q0-19" value="&lt;span style=&quot;line-height: 18px; font-family: 宋体;&quot;&gt;&lt;font style=&quot;font-size: 24px;&quot;&gt;数据清洗模块&lt;/font&gt;&lt;/span&gt;" style="rounded=0;whiteSpace=wrap;html=1;textDirection=vertical-lr;align=center;" vertex="1" parent="1">
          <mxGeometry x="327.5" y="298.75" width="60" height="202.5" as="geometry" />
        </mxCell>
        <mxCell id="8JwG-Oh4VrNy21shM6Q0-20" value="&lt;span style=&quot;line-height: 18px; font-family: 宋体;&quot;&gt;&lt;font style=&quot;font-size: 24px;&quot;&gt;数据标准化模块&lt;/font&gt;&lt;/span&gt;" style="rounded=0;whiteSpace=wrap;html=1;textDirection=vertical-lr;align=center;" vertex="1" parent="1">
          <mxGeometry x="407.5" y="297.5" width="60" height="202.5" as="geometry" />
        </mxCell>
        <mxCell id="8JwG-Oh4VrNy21shM6Q0-21" value="&lt;span style=&quot;line-height: 18px; font-family: 宋体;&quot;&gt;&lt;font style=&quot;font-size: 24px;&quot;&gt;数据融合模块&lt;/font&gt;&lt;/span&gt;" style="rounded=0;whiteSpace=wrap;html=1;textDirection=vertical-lr;align=center;" vertex="1" parent="1">
          <mxGeometry x="487.5" y="296.88" width="60" height="203.75" as="geometry" />
        </mxCell>
        <mxCell id="8JwG-Oh4VrNy21shM6Q0-22" value="&lt;span style=&quot;line-height: 18px; font-family: 宋体;&quot;&gt;&lt;font style=&quot;font-size: 24px;&quot;&gt;数据特征提取模块&lt;/font&gt;&lt;/span&gt;" style="rounded=0;whiteSpace=wrap;html=1;textDirection=vertical-lr;align=center;" vertex="1" parent="1">
          <mxGeometry x="567.5" y="296.25" width="60" height="205" as="geometry" />
        </mxCell>
        <mxCell id="8JwG-Oh4VrNy21shM6Q0-23" value="&lt;span style=&quot;line-height: 18px; font-family: 宋体;&quot;&gt;&lt;font style=&quot;font-size: 24px;&quot;&gt;数据质控模块&lt;/font&gt;&lt;/span&gt;" style="rounded=0;whiteSpace=wrap;html=1;textDirection=vertical-lr;align=center;" vertex="1" parent="1">
          <mxGeometry x="247.5" y="298.75" width="60" height="202.5" as="geometry" />
        </mxCell>
        <mxCell id="8JwG-Oh4VrNy21shM6Q0-25" value="" style="endArrow=classic;html=1;rounded=0;exitX=1;exitY=0.5;exitDx=0;exitDy=0;entryX=0;entryY=0.5;entryDx=0;entryDy=0;" edge="1" parent="1" source="8JwG-Oh4VrNy21shM6Q0-16" target="8JwG-Oh4VrNy21shM6Q0-28">
          <mxGeometry relative="1" as="geometry">
            <mxPoint x="440" y="620" as="sourcePoint" />
            <mxPoint x="405" y="580" as="targetPoint" />
          </mxGeometry>
        </mxCell>
        <mxCell id="8JwG-Oh4VrNy21shM6Q0-26" value="&lt;font face=&quot;宋体&quot; style=&quot;font-size: 16px;&quot;&gt;提供&lt;/font&gt;&lt;div&gt;&lt;font face=&quot;宋体&quot; style=&quot;font-size: 16px;&quot;&gt;训练数据&lt;/font&gt;&lt;/div&gt;" style="edgeLabel;resizable=0;html=1;;align=center;verticalAlign=middle;" connectable="0" vertex="1" parent="8JwG-Oh4VrNy21shM6Q0-25">
          <mxGeometry relative="1" as="geometry" />
        </mxCell>
        <mxCell id="8JwG-Oh4VrNy21shM6Q0-27" value="&lt;span style=&quot;line-height: 18px; font-family: 宋体;&quot;&gt;&lt;font style=&quot;font-size: 24px;&quot;&gt;人工智能模型训练&lt;/font&gt;&lt;/span&gt;" style="rounded=0;whiteSpace=wrap;html=1;textDirection=vertical-lr;align=center;" vertex="1" parent="1">
          <mxGeometry x="1150" y="297.5" width="60" height="210" as="geometry" />
        </mxCell>
        <mxCell id="8JwG-Oh4VrNy21shM6Q0-28" value="" style="rounded=0;whiteSpace=wrap;html=1;fillColor=none;dashed=1;dashPattern=8 8;strokeColor=#000000;" vertex="1" parent="1">
          <mxGeometry x="750" y="296.25" width="380" height="207.5" as="geometry" />
        </mxCell>
        <mxCell id="8JwG-Oh4VrNy21shM6Q0-34" value="&lt;p style=&quot;margin-top: 0pt; margin-bottom: 0pt; margin-left: 0in; direction: ltr; unicode-bidi: embed; word-break: normal;&quot;&gt;&lt;font face=&quot;宋体&quot;&gt;&lt;span style=&quot;font-size: 24px;&quot;&gt;参数优化模块&lt;/span&gt;&lt;/font&gt;&lt;/p&gt;" style="rounded=0;whiteSpace=wrap;html=1;" vertex="1" parent="1">
          <mxGeometry x="770" y="330" width="160" height="60" as="geometry" />
        </mxCell>
        <mxCell id="8JwG-Oh4VrNy21shM6Q0-35" value="&lt;p style=&quot;margin-top: 0pt; margin-bottom: 0pt; margin-left: 0in; direction: ltr; unicode-bidi: embed; word-break: normal;&quot;&gt;&lt;font face=&quot;宋体&quot;&gt;&lt;span style=&quot;font-size: 24px;&quot;&gt;模型优选模块&lt;/span&gt;&lt;/font&gt;&lt;/p&gt;" style="rounded=0;whiteSpace=wrap;html=1;" vertex="1" parent="1">
          <mxGeometry x="950" y="330" width="160" height="60" as="geometry" />
        </mxCell>
        <mxCell id="8JwG-Oh4VrNy21shM6Q0-36" value="&lt;p style=&quot;margin-top: 0pt; margin-bottom: 0pt; margin-left: 0in; direction: ltr; unicode-bidi: embed; word-break: normal;&quot;&gt;&lt;font face=&quot;宋体&quot;&gt;&lt;span style=&quot;font-size: 24px;&quot;&gt;交叉验证与评估模块&lt;/span&gt;&lt;/font&gt;&lt;/p&gt;" style="rounded=0;whiteSpace=wrap;html=1;" vertex="1" parent="1">
          <mxGeometry x="950" y="420" width="160" height="60" as="geometry" />
        </mxCell>
        <mxCell id="8JwG-Oh4VrNy21shM6Q0-37" value="&lt;p style=&quot;margin-top: 0pt; margin-bottom: 0pt; margin-left: 0in; direction: ltr; unicode-bidi: embed; word-break: normal;&quot;&gt;&lt;font face=&quot;宋体&quot;&gt;&lt;span style=&quot;font-size: 24px;&quot;&gt;集成学习模块&lt;/span&gt;&lt;/font&gt;&lt;/p&gt;" style="rounded=0;whiteSpace=wrap;html=1;" vertex="1" parent="1">
          <mxGeometry x="770" y="420" width="160" height="60" as="geometry" />
        </mxCell>
        <mxCell id="8JwG-Oh4VrNy21shM6Q0-40" value="" style="endArrow=classic;html=1;rounded=0;exitX=0.49;exitY=0.993;exitDx=0;exitDy=0;exitPerimeter=0;entryX=0.49;entryY=0.007;entryDx=0;entryDy=0;entryPerimeter=0;" edge="1" parent="1" source="8JwG-Oh4VrNy21shM6Q0-28" target="8JwG-Oh4VrNy21shM6Q0-45">
          <mxGeometry relative="1" as="geometry">
            <mxPoint x="900" y="584" as="sourcePoint" />
            <mxPoint x="930" y="580" as="targetPoint" />
          </mxGeometry>
        </mxCell>
        <mxCell id="8JwG-Oh4VrNy21shM6Q0-41" value="&lt;font face=&quot;宋体&quot; style=&quot;font-size: 16px;&quot;&gt;Label&lt;/font&gt;" style="edgeLabel;resizable=0;html=1;;align=center;verticalAlign=middle;" connectable="0" vertex="1" parent="8JwG-Oh4VrNy21shM6Q0-40">
          <mxGeometry relative="1" as="geometry" />
        </mxCell>
        <mxCell id="8JwG-Oh4VrNy21shM6Q0-44" value="&lt;span style=&quot;line-height: 18px; font-family: 宋体;&quot;&gt;&lt;font style=&quot;font-size: 24px;&quot;&gt;海洋多变量预报&lt;/font&gt;&lt;/span&gt;" style="rounded=0;whiteSpace=wrap;html=1;textDirection=vertical-lr;align=center;" vertex="1" parent="1">
          <mxGeometry x="1150" y="571.25" width="60" height="178.75" as="geometry" />
        </mxCell>
        <mxCell id="8JwG-Oh4VrNy21shM6Q0-45" value="" style="rounded=0;whiteSpace=wrap;html=1;fillColor=none;dashed=1;dashPattern=8 8;strokeColor=#000000;" vertex="1" parent="1">
          <mxGeometry x="750" y="560" width="380" height="207.5" as="geometry" />
        </mxCell>
      </root>
    </mxGraphModel>
  </diagram>
</mxfile>
